
<svg fill="none" height="64" viewBox="0 0 1440 64" width="1440" xmlns="http://www.w3.org/2000/svg"><path d="m1296 35.84c71.95 0 72.05 28.16 144 28.16v-64l-1439.9999944-.00012589-.0000056 64.00002589c71.955 0 72.045-28.16 144-28.16s72.045 28.16 144 28.16 72.045-28.16 144-28.16 72.045 28.16 144 28.16 72.045-28.16 144-28.16c71.955.0001 72.045 28.16 144 28.16 71.955.0001 72.045-28.1599 144-28.1599 71.96 0 72.05 28.16 144 28.16 71.96 0 72.05-28.16 144-28.16z" fill="#c8dfff" fill-opacity=".5"/></svg>